<?xml version="1.0" encoding="UTF-8" standalone="no"?><!DOCTYPE svg PUBLIC "-//W3C//DTD SVG 1.1//EN" "http://www.w3.org/Graphics/SVG/1.1/DTD/svg11.dtd"><svg width="100%" height="100%" viewBox="0 0 1124 1271" version="1.1" xmlns="http://www.w3.org/2000/svg" xmlns:xlink="http://www.w3.org/1999/xlink" xml:space="preserve" xmlns:serif="http://www.serif.com/" style="fill-rule:evenodd;clip-rule:evenodd;stroke-linejoin:round;stroke-miterlimit:2;"><path d="M215.287,129.006l0,1019.44l-215.287,-145.586l0,-728.268l215.287,-145.586Z" style="fill:#00ff94;"/><path d="M385.612,0l0,474.729l153.54,106.233l0,587.601l-60.586,42.327l0,-417.462l-177.608,-119.512l0,-400.034l17.429,-9.129l0,-226.575l67.226,-38.177Z" style="fill:#00ff94;"/><path d="M478.566,58.926l0,348.577l60.586,48.137l0,-352.727l-60.586,-43.987Z" style="fill:#00ff94;"/><path d="M300.957,801.727l0,191.717l17.429,9.959l0,226.575l63.906,40.667l0,-409.993l-81.335,-58.926Z" style="fill:#00ff94;"/><path d="M908.431,129.006l0,1019.44l215.287,-145.586l0,-728.268l-215.287,-145.586Z" style="fill:#00ff94;"/><path d="M738.107,0l0,474.729l-153.54,106.233l0,587.601l60.586,42.327l0,-417.462l177.608,-119.512l0,-400.034l-17.429,-9.129l0,-226.575l-67.226,-38.177Z" style="fill:#00ff94;"/><path d="M645.153,58.926l0,348.577l-60.586,48.137l0,-352.727l60.586,-43.987Z" style="fill:#00ff94;"/><path d="M822.761,801.727l0,191.717l-17.429,9.959l0,226.575l-63.906,40.667l0,-409.993l81.335,-58.926Z" style="fill:#00ff94;"/></svg>